<?xml version="1.0" standalone="no"?>
<!DOCTYPE svg PUBLIC "-//W3C//DTD SVG 20010904//EN"
 "http://www.w3.org/TR/2001/REC-SVG-20010904/DTD/svg10.dtd">
<svg version="1.0" xmlns="http://www.w3.org/2000/svg"
 width="1024.000000pt" height="1024.000000pt" viewBox="0 0 1024.000000 1024.000000"
 preserveAspectRatio="xMidYMid meet">
<metadata>
Created by potrace 1.14, written by Peter Selinger 2001-2017
</metadata>
<g transform="translate(0.000000,1024.000000) scale(0.100000,-0.100000)"
fill="#000000" stroke="none">
<path d="M0 5120 l0 -5120 5120 0 5120 0 0 5120 0 5120 -5120 0 -5120 0 0
-5120z m2071 1623 c109 -54 187 -158 226 -303 16 -57 18 -114 18 -485 0 -365
-2 -429 -17 -488 -25 -94 -61 -161 -124 -227 -30 -31 -54 -60 -54 -64 0 -4 22
-29 49 -55 64 -62 107 -139 128 -231 16 -66 18 -130 18 -525 0 -400 -2 -457
-18 -515 -38 -139 -102 -228 -208 -289 l-54 -31 -395 0 -395 0 -50 29 c-71 41
-130 103 -165 175 -57 117 -62 155 -67 474 l-5 292 196 0 196 0 0 -251 0 -250
43 -50 42 -49 206 0 206 0 41 49 42 50 0 451 0 452 -41 49 -41 49 -209 0 -209
0 0 180 0 180 209 0 209 0 41 48 41 47 0 420 0 420 -41 48 -41 47 -207 0 -208
0 -41 -49 -42 -50 0 -250 0 -251 -196 0 -196 0 5 293 c4 221 9 307 21 355 36
141 108 239 221 299 l60 32 376 1 375 0 55 -27z m1710 0 c109 -54 187 -158
226 -303 16 -57 18 -114 18 -485 0 -366 -2 -429 -17 -488 -25 -94 -61 -162
-124 -227 -30 -31 -54 -60 -54 -64 0 -3 24 -31 54 -61 61 -60 107 -147 128
-240 10 -45 13 -169 13 -510 0 -400 -2 -457 -18 -515 -38 -139 -102 -228 -208
-289 l-54 -31 -395 0 -395 0 -50 29 c-105 60 -178 162 -212 297 -16 61 -18
120 -18 519 1 433 2 453 23 529 27 97 57 151 122 214 28 27 50 54 50 59 0 5
-25 35 -56 67 -62 63 -94 126 -121 231 -16 61 -18 120 -18 480 0 358 2 419 17
478 39 148 111 247 224 306 l59 30 376 1 375 0 55 -27z m1519 17 c0 -6 -142
-483 -315 -1060 -173 -577 -315 -1054 -315 -1060 0 -6 78 -10 220 -10 l220 0
0 217 0 217 67 203 68 203 127 0 128 0 0 -420 0 -420 155 0 155 0 0 -205 0
-205 -155 0 -155 0 0 -345 0 -345 -195 0 -195 0 0 345 0 345 -420 0 -420 0 0
179 0 180 315 1048 c174 576 323 1069 331 1096 l16 47 184 0 c118 0 184 -4
184 -10z m1938 -107 l-3 -98 -95 0 -95 0 -3 98 -3 97 101 0 101 0 -3 -97z m2
-888 l0 -645 -95 0 -95 0 0 645 0 645 95 0 95 0 0 -645z m350 598 l0 -47 48
47 48 47 105 0 c101 0 107 -1 146 -30 24 -18 52 -51 65 -78 l23 -47 3 -567 2
-568 -95 0 -95 0 0 523 0 522 -25 28 c-24 25 -32 27 -102 27 -65 0 -80 -3
-100 -22 l-23 -21 0 -529 0 -528 -100 0 -100 0 0 645 0 645 100 0 100 0 0 -47z
m1118 33 c39 -20 78 -65 99 -111 13 -32 18 -76 21 -212 l4 -173 -96 0 -96 0 0
129 c0 125 -1 131 -26 160 -25 30 -29 31 -104 31 -73 0 -81 -2 -105 -27 l-25
-28 0 -400 0 -400 25 -28 c24 -25 32 -27 102 -27 70 0 80 2 105 27 l28 27 0
138 0 138 96 0 96 0 -4 -177 c-4 -193 -13 -230 -66 -286 -50 -53 -67 -57 -258
-57 -174 0 -179 1 -215 25 -20 14 -49 49 -65 78 l-29 52 -3 463 c-3 508 -1
536 55 603 55 65 70 69 261 69 130 0 180 -4 200 -14z"/>
<path d="M3113 6329 l-43 -51 0 -405 0 -404 43 -50 42 -49 196 0 196 0 41 49
42 50 0 406 0 406 -42 50 -43 49 -195 0 -195 0 -42 -51z"/>
<path d="M3116 4940 l-46 -49 0 -439 0 -440 46 -51 46 -51 191 0 192 0 43 51
42 51 0 442 -1 441 -44 48 -43 47 -190 0 -189 0 -47 -50z"/>
</g>
</svg>
